<?xml version="1.0" standalone="no"?>
<!DOCTYPE svg PUBLIC "-//W3C//DTD SVG 20010904//EN"
 "http://www.w3.org/TR/2001/REC-SVG-20010904/DTD/svg10.dtd">
<svg version="1.0" xmlns="http://www.w3.org/2000/svg"
 width="700.000000pt" height="700.000000pt" viewBox="0 0 700.000000 700.000000"
 preserveAspectRatio="xMidYMid meet">
<metadata>
Created by potrace 1.14, written by Peter Selinger 2001-2017
</metadata>
<g transform="translate(0.000000,700.000000) scale(0.100000,-0.100000)"
fill="#000000" stroke="none">
<path d="M3337 5904 c-1 -1 -40 -5 -87 -9 -47 -3 -96 -8 -110 -10 -14 -2 -45
-6 -70 -9 -25 -3 -54 -8 -65 -10 -11 -2 -40 -7 -65 -12 -25 -4 -47 -8 -50 -9
-3 -1 -23 -5 -45 -9 -126 -25 -401 -111 -505 -158 -367 -165 -635 -348 -843
-579 -265 -292 -423 -629 -463 -984 -7 -64 -7 -321 0 -333 2 -4 7 -29 10 -57
30 -230 138 -496 284 -705 168 -239 387 -441 661 -610 l106 -66 0 -119 c-1
-160 -10 -268 -36 -421 -25 -155 -24 -146 -43 -220 -8 -33 -17 -69 -19 -80
-11 -59 -58 -201 -141 -422 -25 -68 -46 -125 -46 -127 0 -2 87 48 193 112 105
64 201 121 212 127 11 6 75 45 143 86 68 41 142 86 165 99 23 13 61 37 85 52
24 16 44 29 46 29 1 0 76 45 167 99 190 115 430 259 468 281 14 9 82 49 150
90 111 67 129 74 180 76 69 2 210 13 242 19 13 2 44 6 69 9 25 3 55 8 66 10
12 2 37 7 55 10 32 5 54 10 104 20 152 31 474 138 562 185 10 5 61 31 113 57
615 304 1039 835 1125 1409 14 95 15 110 15 230 -1 174 -8 239 -46 385 -50
191 -126 358 -243 531 -88 130 -120 168 -251 299 -191 191 -362 311 -635 445
-237 116 -553 215 -790 250 -11 1 -39 5 -62 9 -153 22 -243 29 -426 30 -98 1
-179 1 -180 0z"/>
</g>
</svg>
